<svg xmlns="http://www.w3.org/2000/svg" width="170.095" height="133" viewBox="0 0 170.095 133">
  <metadata><?xpacket begin="﻿" id="W5M0MpCehiHzreSzNTczkc9d"?>
<x:xmpmeta xmlns:x="adobe:ns:meta/" x:xmptk="Adobe XMP Core 5.6-c140 79.160451, 2017/05/06-01:08:21        ">
   <rdf:RDF xmlns:rdf="http://www.w3.org/1999/02/22-rdf-syntax-ns#">
      <rdf:Description rdf:about=""/>
   </rdf:RDF>
</x:xmpmeta>
                                                                                                    
                                                                                                    
                                                                                                    
                                                                                                    
                                                                                                    
                                                                                                    
                                                                                                    
                                                                                                    
                                                                                                    
                                                                                                    
                                                                                                    
                                                                                                    
                                                                                                    
                                                                                                    
                                                                                                    
                                                                                                    
                                                                                                    
                                                                                                    
                                                                                                    
                                                                                                    
                           
<?xpacket end="w"?></metadata>
<defs>
    <style>
      .cls-1 {
        fill: #f5eee3;
        fill-rule: evenodd;
      }
    </style>
  </defs>
  <path id="tv" class="cls-1" d="M1080.7,3004.6a213.576,213.576,0,0,0-86.838,0,5.326,5.326,0,0,0-3.983,3.55,110.083,110.083,0,0,0,0,70.24,5.345,5.345,0,0,0,3.983,3.55,213.576,213.576,0,0,0,86.838,0,5.318,5.318,0,0,0,3.98-3.55,110.083,110.083,0,0,0,0-70.24A5.3,5.3,0,0,0,1080.7,3004.6Zm-1.07,72.13a208.317,208.317,0,0,1-84.7,0,104.4,104.4,0,0,1,0-66.92,208.317,208.317,0,0,1,84.7,0A104.439,104.439,0,0,1,1079.63,3076.73Zm47.24-84.39a10.647,10.647,0,0,0-9.06-8.1,578.193,578.193,0,0,0-139.787,0,10.641,10.641,0,0,0-9.061,8.1,220.456,220.456,0,0,0,0,103,10.641,10.641,0,0,0,9.061,8.1c11.171,1.35,22.417,2.35,33.667,3.06a1.707,1.707,0,0,0-1,1.18c0,2.94,16.67,5.32,37.23,5.32s37.22-2.38,37.22-5.32a1.707,1.707,0,0,0-1-1.18c11.25-.71,22.5-1.71,33.67-3.06a10.647,10.647,0,0,0,9.06-8.1A220.535,220.535,0,0,0,1126.87,2992.34Zm-10.34,100.53a566.546,566.546,0,0,1-137.224,0,208.937,208.937,0,0,1,0-98.06,566.546,566.546,0,0,1,137.224,0A208.911,208.911,0,0,1,1116.53,3092.87Zm-12.78-70.31a7.98,7.98,0,1,0-7.97-7.98A7.976,7.976,0,0,0,1103.75,3022.56Zm0-10.64a2.66,2.66,0,1,1-2.66,2.66A2.665,2.665,0,0,1,1103.75,3011.92Zm5.32,63.84h-15.95a2.66,2.66,0,0,0,0,5.32h15.95A2.66,2.66,0,1,0,1109.07,3075.76Zm5.32-15.96h-15.96a2.66,2.66,0,0,0,0,5.32h15.96A2.66,2.66,0,1,0,1114.39,3059.8Zm0-15.96h-15.96a2.66,2.66,0,0,0,0,5.32h15.96A2.66,2.66,0,1,0,1114.39,3043.84Zm-79.77-22.32-24.38,1.91a3.775,3.775,0,0,0-3.09,2.93l-1.62,14.83a2.5,2.5,0,0,0,2.51,2.65,2.793,2.793,0,0,0,2.76-2.66l0.89-10.08a3.534,3.534,0,0,1,3-2.9l19.93-1.37a2.777,2.777,0,0,0,2.66-2.75A2.539,2.539,0,0,0,1034.62,3021.52Z" transform="translate(-962.875 -2980)"/>
</svg>
