<svg xmlns="http://www.w3.org/2000/svg" width="48.031" height="48" viewBox="0 0 48.031 48">
  <metadata><?xpacket begin="﻿" id="W5M0MpCehiHzreSzNTczkc9d"?>
<x:xmpmeta xmlns:x="adobe:ns:meta/" x:xmptk="Adobe XMP Core 5.6-c140 79.160451, 2017/05/06-01:08:21        ">
   <rdf:RDF xmlns:rdf="http://www.w3.org/1999/02/22-rdf-syntax-ns#">
      <rdf:Description rdf:about=""/>
   </rdf:RDF>
</x:xmpmeta>
                                                                                                    
                                                                                                    
                                                                                                    
                                                                                                    
                                                                                                    
                                                                                                    
                                                                                                    
                                                                                                    
                                                                                                    
                                                                                                    
                                                                                                    
                                                                                                    
                                                                                                    
                                                                                                    
                                                                                                    
                                                                                                    
                                                                                                    
                                                                                                    
                                                                                                    
                                                                                                    
                           
<?xpacket end="w"?></metadata>
<defs>
    <style>
      .cls-1 {
        fill: #828c8e;
        fill-rule: evenodd;
      }
    </style>
  </defs>
  <path id="sound" class="cls-1" d="M696.491,4577.01h0a0.75,0.75,0,0,0,1.5-.01l0-.01a15,15,0,0,0-14.972-14.98c-0.013,0-.025-0.01-0.039-0.01a0.75,0.75,0,0,0,0,1.5v0.01A13.517,13.517,0,0,1,696.491,4577.01Zm-26.843-19.69a4.5,4.5,0,0,0-7.689,3.18v20.64l-4.685,4.68a4.49,4.49,0,0,0,0,6.36l10.51,10.5a4.5,4.5,0,0,0,6.37,0l4.686-4.68h20.655a4.5,4.5,0,0,0,3.185-7.68Zm7.068,38.56-4.687,4.68a1.5,1.5,0,0,1-2.123,0l-10.51-10.5a1.5,1.5,0,0,1,0-2.12l4.685-4.68c0.013-.02.017-0.03,0.03-0.05l12.65,12.64C676.748,4595.86,676.729,4595.87,676.716,4595.88Zm2.123-.88a3.072,3.072,0,0,0-.672.13l-13.34-13.32a3.118,3.118,0,0,0,.133-0.67l0-18.07L696.925,4595H678.839Zm22.042-.93a1.488,1.488,0,0,1-1.387.93h-0.446l-34.086-34.05v-0.45a1.507,1.507,0,0,1,.927-1.39,1.607,1.607,0,0,1,.573-0.11,1.5,1.5,0,0,1,1.062.44l33.032,33A1.488,1.488,0,0,1,700.881,4594.07Zm-17.9-35.07v0.01a18.026,18.026,0,0,1,18.018,18h0a1.5,1.5,0,0,0,3-.01l0-.01a21,21,0,0,0-20.978-20.98c-0.013,0-.025-0.01-0.039-0.01A1.5,1.5,0,1,0,682.978,4559Z" transform="translate(-655.969 -4556)"/>
</svg>
