<svg xmlns="http://www.w3.org/2000/svg" width="48" height="43.47" viewBox="0 0 48 43.47">
  <metadata><?xpacket begin="﻿" id="W5M0MpCehiHzreSzNTczkc9d"?>
<x:xmpmeta xmlns:x="adobe:ns:meta/" x:xmptk="Adobe XMP Core 5.6-c140 79.160451, 2017/05/06-01:08:21        ">
   <rdf:RDF xmlns:rdf="http://www.w3.org/1999/02/22-rdf-syntax-ns#">
      <rdf:Description rdf:about=""/>
   </rdf:RDF>
</x:xmpmeta>
                                                                                                    
                                                                                                    
                                                                                                    
                                                                                                    
                                                                                                    
                                                                                                    
                                                                                                    
                                                                                                    
                                                                                                    
                                                                                                    
                                                                                                    
                                                                                                    
                                                                                                    
                                                                                                    
                                                                                                    
                                                                                                    
                                                                                                    
                                                                                                    
                                                                                                    
                                                                                                    
                           
<?xpacket end="w"?></metadata>
<defs>
    <style>
      .cls-1 {
        fill: #828c8e;
        fill-rule: evenodd;
      }
    </style>
  </defs>
  <path id="clip" class="cls-1" d="M700.045,4561.45a13.5,13.5,0,0,0-19.09,0l-21.885,21.6a10.5,10.5,0,0,0,14.848,14.84l21.885-21.61a7.494,7.494,0,0,0-10.606-10.59l-16.453,16.43a1.5,1.5,0,1,0,2.121,2.12l16.453-16.43a4.5,4.5,0,1,1,6.364,6.36l-21.885,21.6a7.5,7.5,0,0,1-10.606-10.6l21.671-21.39a10.494,10.494,0,0,1,14.851,14.83l-16.239,16.23a1.493,1.493,0,0,0,0,2.12,1.51,1.51,0,0,0,2.121,0l16.45-16.44A13.472,13.472,0,0,0,700.045,4561.45Z" transform="translate(-656 -4557.5)"/>
</svg>
