<svg xmlns="http://www.w3.org/2000/svg" width="48.031" height="37.5" viewBox="0 0 48.031 37.5">
  <metadata><?xpacket begin="﻿" id="W5M0MpCehiHzreSzNTczkc9d"?>
<x:xmpmeta xmlns:x="adobe:ns:meta/" x:xmptk="Adobe XMP Core 5.6-c140 79.160451, 2017/05/06-01:08:21        ">
   <rdf:RDF xmlns:rdf="http://www.w3.org/1999/02/22-rdf-syntax-ns#">
      <rdf:Description rdf:about=""/>
   </rdf:RDF>
</x:xmpmeta>
                                                                                                    
                                                                                                    
                                                                                                    
                                                                                                    
                                                                                                    
                                                                                                    
                                                                                                    
                                                                                                    
                                                                                                    
                                                                                                    
                                                                                                    
                                                                                                    
                                                                                                    
                                                                                                    
                                                                                                    
                                                                                                    
                                                                                                    
                                                                                                    
                                                                                                    
                                                                                                    
                           
<?xpacket end="w"?></metadata>
<defs>
    <style>
      .cls-1 {
        fill: #828c8e;
        fill-rule: evenodd;
      }
    </style>
  </defs>
  <path id="tv" class="cls-1" d="M689.233,4567.44a60.271,60.271,0,0,0-24.519,0,1.491,1.491,0,0,0-1.125,1,30.992,30.992,0,0,0,0,19.8,1.509,1.509,0,0,0,1.125,1,60.271,60.271,0,0,0,24.519,0,1.508,1.508,0,0,0,1.125-1,30.978,30.978,0,0,0,0-19.8A1.49,1.49,0,0,0,689.233,4567.44Zm-0.3,20.33a58.738,58.738,0,0,1-23.915,0,29.375,29.375,0,0,1,0-18.86,58.738,58.738,0,0,1,23.915,0A29.375,29.375,0,0,1,688.931,4587.77Zm13.339-23.79a3,3,0,0,0-2.559-2.28,162.871,162.871,0,0,0-39.469,0,3,3,0,0,0-2.559,2.28,62.078,62.078,0,0,0,0,29.04,3,3,0,0,0,2.559,2.28c3.154,0.39,6.33.67,9.506,0.87a0.47,0.47,0,0,0-.282.33c0,0.83,4.706,1.5,10.511,1.5s10.51-.67,10.51-1.5a0.47,0.47,0,0,0-.282-0.33c3.176-.2,6.352-0.48,9.506-0.87a3,3,0,0,0,2.559-2.28A62.078,62.078,0,0,0,702.27,4563.98Zm-2.921,28.35a160.967,160.967,0,0,1-38.745,0,58.889,58.889,0,0,1,0-27.66,160.967,160.967,0,0,1,38.745,0A58.863,58.863,0,0,1,699.349,4592.33Zm-3.607-19.83a2.25,2.25,0,1,0-2.252-2.25A2.253,2.253,0,0,0,695.742,4572.5Zm0-3a0.75,0.75,0,1,1-.751.75A0.754,0.754,0,0,1,695.742,4569.5Zm1.5,18h-4.5a0.75,0.75,0,1,0,0,1.5h4.5A0.75,0.75,0,1,0,697.243,4587.5Zm1.5-4.5h-4.5a0.75,0.75,0,1,0,0,1.5h4.5A0.75,0.75,0,1,0,698.745,4583Zm0-4.5h-4.5a0.75,0.75,0,1,0,0,1.5h4.5A0.75,0.75,0,1,0,698.745,4578.5Zm-22.522-6.29-6.886.54a1.055,1.055,0,0,0-.871.82l-0.459,4.18a0.71,0.71,0,0,0,.712.75,0.791,0.791,0,0,0,.777-0.75l0.25-2.84a1,1,0,0,1,.848-0.82l5.629-.39a0.779,0.779,0,0,0,.751-0.77A0.711,0.711,0,0,0,676.223,4572.21Z" transform="translate(-655.969 -4560.5)"/>
</svg>
